<svg width="900" height="1200" viewBox="0 0 900 1200" xmlns="http://www.w3.org/2000/svg">
  <defs>
    <radialGradient id="bg" cx="50%" cy="42%" r="68%">
      <stop offset="0" stop-color="#2b2b2b"/>
      <stop offset="0.55" stop-color="#101010"/>
      <stop offset="1" stop-color="#000"/>
    </radialGradient>
    <filter id="blur"><feGaussianBlur stdDeviation="16"/></filter>
  </defs>
  <rect width="900" height="1200" fill="url(#bg)"/>
  <g opacity="0.18" filter="url(#blur)">
    <circle cx="280" cy="420" r="120" fill="#fff"/>
    <circle cx="620" cy="630" r="150" fill="#fff"/>
    <circle cx="410" cy="860" r="100" fill="#fff"/>
  </g>
  <g fill="none" stroke="#fff" stroke-opacity="0.2">
    <path d="M180 360L350 500L525 380L700 560L560 760L310 710L180 360"/>
    <path d="M350 500L310 710M525 380L560 760M700 560L310 710"/>
    <path d="M216 898C350 780 510 1020 690 860" stroke-opacity="0.35" stroke-width="3"/>
  </g>
  <g fill="#fff">
    <circle cx="180" cy="360" r="10" opacity="0.8"/>
    <circle cx="350" cy="500" r="7" opacity="0.5"/>
    <circle cx="525" cy="380" r="9" opacity="0.65"/>
    <circle cx="700" cy="560" r="12" opacity="0.86"/>
    <circle cx="560" cy="760" r="8" opacity="0.52"/>
    <circle cx="310" cy="710" r="11" opacity="0.74"/>
  </g>
  <rect x="70" y="188" width="240" height="86" fill="#fff" fill-opacity="0.055" stroke="#fff" stroke-opacity="0.14"/>
  <rect x="332" y="188" width="240" height="86" fill="#fff" fill-opacity="0.035" stroke="#fff" stroke-opacity="0.12"/>
  <rect x="594" y="188" width="236" height="86" fill="#fff" fill-opacity="0.055" stroke="#fff" stroke-opacity="0.14"/>
</svg>
