<svg width="1200" height="800" viewBox="0 0 1200 800" xmlns="http://www.w3.org/2000/svg">
  <defs>
    <linearGradient id="bg" x1="0" y1="0" x2="1" y2="1">
      <stop offset="0" stop-color="#050505"/>
      <stop offset="0.52" stop-color="#1a1a1a"/>
      <stop offset="1" stop-color="#000"/>
    </linearGradient>
    <radialGradient id="glow" cx="54%" cy="45%" r="58%">
      <stop offset="0" stop-color="#ffffff" stop-opacity="0.22"/>
      <stop offset="0.45" stop-color="#ffffff" stop-opacity="0.06"/>
      <stop offset="1" stop-color="#ffffff" stop-opacity="0"/>
    </radialGradient>
    <pattern id="grid" width="48" height="48" patternUnits="userSpaceOnUse">
      <path d="M48 0H0V48" fill="none" stroke="#fff" stroke-opacity="0.055" stroke-width="1"/>
    </pattern>
  </defs>
  <rect width="1200" height="800" fill="url(#bg)"/>
  <rect width="1200" height="800" fill="url(#grid)"/>
  <rect width="1200" height="800" fill="url(#glow)"/>
  <g fill="none" stroke="#fff" stroke-linecap="round">
    <path d="M180 560C320 450 390 620 520 500S760 255 1025 305" stroke-opacity="0.78" stroke-width="3"/>
    <path d="M160 420C290 355 398 438 520 370S756 160 1040 205" stroke-opacity="0.28" stroke-width="2"/>
    <path d="M190 650C330 548 438 700 570 585S785 410 1010 455" stroke-opacity="0.2" stroke-width="2"/>
  </g>
  <g>
    <rect x="82" y="186" width="300" height="168" fill="#fff" fill-opacity="0.055" stroke="#fff" stroke-opacity="0.16"/>
    <rect x="418" y="176" width="332" height="214" fill="#fff" fill-opacity="0.035" stroke="#fff" stroke-opacity="0.12"/>
    <rect x="790" y="166" width="322" height="188" fill="#fff" fill-opacity="0.05" stroke="#fff" stroke-opacity="0.14"/>
  </g>
  <g fill="#fff">
    <circle cx="180" cy="560" r="8" opacity="0.8"/>
    <circle cx="520" cy="500" r="10" opacity="0.9"/>
    <circle cx="760" cy="255" r="7" opacity="0.72"/>
    <circle cx="1025" cy="305" r="9" opacity="0.82"/>
  </g>
</svg>
